<svg id="visual" viewBox="0 0 900 600" width="900" height="600" xmlns="http://www.w3.org/2000/svg" xmlns:xlink="http://www.w3.org/1999/xlink" version="1.1"><rect x="0" y="0" width="900" height="600" fill="#e85bd7"></rect><defs><linearGradient id="grad1_0" x1="33.3%" y1="100%" x2="100%" y2="0%"><stop offset="20%" stop-color="#9e00ff" stop-opacity="1"></stop><stop offset="80%" stop-color="#9e00ff" stop-opacity="1"></stop></linearGradient></defs><defs><linearGradient id="grad1_1" x1="33.3%" y1="100%" x2="100%" y2="0%"><stop offset="20%" stop-color="#9e00ff" stop-opacity="1"></stop><stop offset="80%" stop-color="#c123ef" stop-opacity="1"></stop></linearGradient></defs><defs><linearGradient id="grad1_2" x1="33.3%" y1="100%" x2="100%" y2="0%"><stop offset="20%" stop-color="#d840e2" stop-opacity="1"></stop><stop offset="80%" stop-color="#c123ef" stop-opacity="1"></stop></linearGradient></defs><defs><linearGradient id="grad1_3" x1="33.3%" y1="100%" x2="100%" y2="0%"><stop offset="20%" stop-color="#d840e2" stop-opacity="1"></stop><stop offset="80%" stop-color="#e85bd7" stop-opacity="1"></stop></linearGradient></defs><defs><linearGradient id="grad2_0" x1="0%" y1="100%" x2="66.7%" y2="0%"><stop offset="20%" stop-color="#9e00ff" stop-opacity="1"></stop><stop offset="80%" stop-color="#9e00ff" stop-opacity="1"></stop></linearGradient></defs><defs><linearGradient id="grad2_1" x1="0%" y1="100%" x2="66.7%" y2="0%"><stop offset="20%" stop-color="#c123ef" stop-opacity="1"></stop><stop offset="80%" stop-color="#9e00ff" stop-opacity="1"></stop></linearGradient></defs><defs><linearGradient id="grad2_2" x1="0%" y1="100%" x2="66.7%" y2="0%"><stop offset="20%" stop-color="#c123ef" stop-opacity="1"></stop><stop offset="80%" stop-color="#d840e2" stop-opacity="1"></stop></linearGradient></defs><defs><linearGradient id="grad2_3" x1="0%" y1="100%" x2="66.7%" y2="0%"><stop offset="20%" stop-color="#e85bd7" stop-opacity="1"></stop><stop offset="80%" stop-color="#d840e2" stop-opacity="1"></stop></linearGradient></defs><g transform="translate(900, 600)"><path d="M-513.8 0C-492.6 -40.1 -471.4 -80.1 -455 -121.9C-438.5 -163.7 -426.9 -207.1 -392.3 -226.5C-357.7 -245.9 -300.2 -241.2 -279.3 -279.3C-258.4 -317.4 -274.3 -398.4 -255 -441.7C-235.7 -484.9 -181.3 -490.5 -133 -496.3C-84.6 -502 -42.3 -507.9 0 -513.8L0 0Z" fill="#e14edc"></path><path d="M-385.3 0C-369.4 -30.1 -353.5 -60.1 -341.2 -91.4C-328.9 -122.8 -320.2 -155.3 -294.2 -169.9C-268.3 -184.4 -225.1 -180.9 -209.5 -209.5C-193.8 -238.1 -205.7 -298.8 -191.3 -331.3C-176.8 -363.7 -136 -367.9 -99.7 -372.2C-63.5 -376.5 -31.7 -380.9 0 -385.3L0 0Z" fill="#ce32e8"></path><path d="M-256.9 0C-246.3 -20 -235.7 -40.1 -227.5 -61C-219.3 -81.8 -213.5 -103.6 -196.2 -113.3C-178.9 -122.9 -150.1 -120.6 -139.7 -139.7C-129.2 -158.7 -137.1 -199.2 -127.5 -220.8C-117.9 -242.5 -90.7 -245.3 -66.5 -248.1C-42.3 -251 -21.2 -254 0 -256.9L0 0Z" fill="#b113f7"></path><path d="M-128.4 0C-123.1 -10 -117.8 -20 -113.7 -30.5C-109.6 -40.9 -106.7 -51.8 -98.1 -56.6C-89.4 -61.5 -75 -60.3 -69.8 -69.8C-64.6 -79.4 -68.6 -99.6 -63.8 -110.4C-58.9 -121.2 -45.3 -122.6 -33.2 -124.1C-21.2 -125.5 -10.6 -127 0 -128.4L0 0Z" fill="#9e00ff"></path></g><g transform="translate(0, 0)"><path d="M513.8 0C499.5 42.3 485.2 84.5 463.6 124.2C442 164 413.1 201.1 372.4 215C331.7 228.9 279.2 219.4 265.9 265.9C252.5 312.3 278.4 414.7 256.9 445C235.4 475.2 166.6 433.3 116 432.7C65.3 432.2 32.6 473 0 513.8L0 0Z" fill="#e14edc"></path><path d="M385.3 0C374.6 31.7 363.9 63.4 347.7 93.2C331.5 123 309.8 150.9 279.3 161.2C248.8 171.6 209.4 164.6 199.4 199.4C189.4 234.3 208.8 311 192.7 333.7C176.6 356.4 125 325 87 324.6C48.9 324.1 24.5 354.7 0 385.3L0 0Z" fill="#ce32e8"></path><path d="M256.9 0C249.8 21.1 242.6 42.3 231.8 62.1C221 82 206.6 100.6 186.2 107.5C165.8 114.4 139.6 109.7 132.9 132.9C126.3 156.2 139.2 207.4 128.4 222.5C117.7 237.6 83.3 216.6 58 216.4C32.6 216.1 16.3 236.5 0 256.9L0 0Z" fill="#b113f7"></path><path d="M128.4 0C124.9 10.6 121.3 21.1 115.9 31.1C110.5 41 103.3 50.3 93.1 53.7C82.9 57.2 69.8 54.9 66.5 66.5C63.1 78.1 69.6 103.7 64.2 111.2C58.9 118.8 41.7 108.3 29 108.2C16.3 108 8.2 118.2 0 128.4L0 0Z" fill="#9e00ff"></path></g></svg>