<svg id="visual" viewBox="0 0 900 600" width="900" height="600" xmlns="http://www.w3.org/2000/svg" xmlns:xlink="http://www.w3.org/1999/xlink" version="1.1"><path d="M0 103L82 121L164 139L245 97L327 49L409 85L491 127L573 121L655 115L736 151L818 169L900 151L900 0L818 0L736 0L655 0L573 0L491 0L409 0L327 0L245 0L164 0L82 0L0 0Z" fill="#9e00ff"></path><path d="M0 175L82 187L164 175L245 133L327 115L409 151L491 175L573 199L655 163L736 199L818 235L900 193L900 149L818 167L736 149L655 113L573 119L491 125L409 83L327 47L245 95L164 137L82 119L0 101Z" fill="#ba1bf3"></path><path d="M0 397L82 289L164 283L245 301L327 277L409 259L491 331L573 319L655 343L736 409L818 439L900 325L900 191L818 233L736 197L655 161L573 197L491 173L409 149L327 113L245 131L164 173L82 185L0 173Z" fill="#ce32e8"></path><path d="M0 559L82 475L164 493L245 481L327 481L409 487L491 493L573 487L655 475L736 541L818 547L900 481L900 323L818 437L736 407L655 341L573 317L491 329L409 257L327 275L245 299L164 281L82 287L0 395Z" fill="#dd47df"></path><path d="M0 601L82 601L164 601L245 601L327 601L409 601L491 601L573 601L655 601L736 601L818 601L900 601L900 479L818 545L736 539L655 473L573 485L491 491L409 485L327 479L245 479L164 491L82 473L0 557Z" fill="#e85bd7"></path></svg>